<svg xmlns="http://www.w3.org/2000/svg" xmlns:xlink="http://www.w3.org/1999/xlink" width="512" zoomAndPan="magnify" viewBox="0 0 384 383.999986" height="512" preserveAspectRatio="xMidYMid meet" version="1.0"><path fill="#99a0b2" d="M 372.707031 192 C 372.707031 192.742188 372.632812 193.476562 372.488281 194.203125 C 372.34375 194.929688 372.128906 195.636719 371.847656 196.320312 C 371.5625 197.007812 371.214844 197.65625 370.800781 198.273438 C 370.390625 198.890625 369.921875 199.460938 369.398438 199.984375 C 368.875 200.511719 368.304688 200.980469 367.6875 201.390625 C 367.070312 201.800781 366.417969 202.152344 365.734375 202.433594 C 365.046875 202.71875 364.34375 202.933594 363.613281 203.078125 C 362.886719 203.222656 362.152344 203.292969 361.410156 203.292969 L 22.589844 203.292969 C 21.847656 203.292969 21.113281 203.222656 20.386719 203.078125 C 19.65625 202.933594 18.953125 202.71875 18.265625 202.433594 C 17.582031 202.152344 16.929688 201.800781 16.3125 201.390625 C 15.695312 200.980469 15.125 200.511719 14.601562 199.984375 C 14.078125 199.460938 13.609375 198.890625 13.199219 198.273438 C 12.785156 197.65625 12.4375 197.007812 12.152344 196.320312 C 11.871094 195.636719 11.65625 194.929688 11.511719 194.203125 C 11.367188 193.476562 11.292969 192.742188 11.292969 192 C 11.292969 191.257812 11.367188 190.523438 11.511719 189.796875 C 11.65625 189.070312 11.871094 188.363281 12.152344 187.679688 C 12.4375 186.992188 12.785156 186.34375 13.199219 185.726562 C 13.609375 185.109375 14.078125 184.539062 14.601562 184.015625 C 15.125 183.488281 15.695312 183.019531 16.3125 182.609375 C 16.929688 182.195312 17.582031 181.847656 18.265625 181.566406 C 18.953125 181.28125 19.65625 181.066406 20.386719 180.921875 C 21.113281 180.777344 21.847656 180.707031 22.589844 180.707031 L 361.410156 180.707031 C 362.152344 180.707031 362.886719 180.777344 363.613281 180.921875 C 364.34375 181.066406 365.046875 181.28125 365.734375 181.566406 C 366.417969 181.847656 367.070312 182.199219 367.6875 182.609375 C 368.304688 183.019531 368.875 183.488281 369.398438 184.015625 C 369.921875 184.539062 370.390625 185.109375 370.800781 185.726562 C 371.214844 186.34375 371.5625 186.992188 371.847656 187.679688 C 372.128906 188.363281 372.34375 189.070312 372.488281 189.796875 C 372.632812 190.523438 372.707031 191.257812 372.707031 192 Z M 327.53125 67.765625 C 327.53125 66.285156 327.457031 64.808594 327.3125 63.335938 C 327.167969 61.863281 326.949219 60.402344 326.660156 58.953125 C 326.371094 57.5 326.011719 56.066406 325.585938 54.652344 C 325.15625 53.234375 324.65625 51.84375 324.089844 50.476562 C 323.523438 49.109375 322.890625 47.773438 322.195312 46.46875 C 321.496094 45.164062 320.738281 43.894531 319.914062 42.664062 C 319.09375 41.4375 318.214844 40.25 317.273438 39.105469 C 316.335938 37.960938 315.34375 36.867188 314.296875 35.820312 C 313.25 34.773438 312.15625 33.78125 311.011719 32.84375 C 309.867188 31.902344 308.683594 31.023438 307.453125 30.203125 C 306.222656 29.378906 304.953125 28.621094 303.648438 27.921875 C 302.34375 27.226562 301.007812 26.59375 299.640625 26.027344 C 298.273438 25.460938 296.882812 24.964844 295.46875 24.535156 C 294.050781 24.105469 292.617188 23.746094 291.167969 23.457031 C 289.714844 23.167969 288.253906 22.949219 286.78125 22.804688 C 285.308594 22.660156 283.832031 22.589844 282.351562 22.589844 L 101.648438 22.589844 C 100.167969 22.589844 98.691406 22.660156 97.21875 22.804688 C 95.746094 22.949219 94.285156 23.167969 92.832031 23.457031 C 91.382812 23.746094 89.949219 24.105469 88.53125 24.535156 C 87.117188 24.964844 85.726562 25.460938 84.359375 26.027344 C 82.992188 26.59375 81.65625 27.226562 80.351562 27.921875 C 79.046875 28.621094 77.777344 29.378906 76.546875 30.203125 C 75.316406 31.023438 74.132812 31.902344 72.988281 32.84375 C 71.84375 33.78125 70.75 34.773438 69.703125 35.820312 C 68.65625 36.867188 67.664062 37.960938 66.726562 39.105469 C 65.785156 40.25 64.90625 41.4375 64.085938 42.664062 C 63.261719 43.894531 62.503906 45.164062 61.804688 46.46875 C 61.109375 47.773438 60.476562 49.109375 59.910156 50.476562 C 59.34375 51.84375 58.84375 53.234375 58.414062 54.652344 C 57.988281 56.066406 57.628906 57.5 57.339844 58.953125 C 57.050781 60.402344 56.832031 61.863281 56.6875 63.335938 C 56.542969 64.808594 56.46875 66.285156 56.46875 67.765625 L 56.46875 158.117188 L 327.53125 158.117188 Z M 304.941406 316.234375 C 304.941406 316.976562 304.90625 317.714844 304.832031 318.449219 C 304.761719 319.183594 304.652344 319.917969 304.507812 320.640625 C 304.363281 321.367188 304.183594 322.085938 303.96875 322.792969 C 303.753906 323.5 303.503906 324.195312 303.222656 324.878906 C 302.9375 325.5625 302.621094 326.230469 302.273438 326.882812 C 301.925781 327.535156 301.546875 328.167969 301.132812 328.785156 C 300.722656 329.398438 300.285156 329.992188 299.8125 330.566406 C 299.34375 331.136719 298.847656 331.683594 298.324219 332.207031 C 297.800781 332.730469 297.253906 333.226562 296.683594 333.695312 C 296.109375 334.164062 295.515625 334.605469 294.902344 335.015625 C 294.289062 335.425781 293.652344 335.808594 293 336.15625 C 292.347656 336.503906 291.679688 336.820312 290.996094 337.105469 C 290.3125 337.386719 289.617188 337.636719 288.910156 337.851562 C 288.203125 338.066406 287.484375 338.246094 286.757812 338.390625 C 286.035156 338.535156 285.304688 338.640625 284.566406 338.714844 C 283.832031 338.789062 283.09375 338.824219 282.351562 338.824219 L 271.058594 338.824219 C 270.316406 338.824219 269.582031 338.894531 268.855469 339.039062 C 268.128906 339.183594 267.421875 339.398438 266.738281 339.683594 C 266.050781 339.96875 265.402344 340.316406 264.785156 340.726562 C 264.167969 341.140625 263.597656 341.605469 263.074219 342.132812 C 262.546875 342.65625 262.082031 343.226562 261.667969 343.84375 C 261.257812 344.460938 260.910156 345.109375 260.625 345.796875 C 260.339844 346.480469 260.125 347.1875 259.980469 347.914062 C 259.835938 348.640625 259.765625 349.375 259.765625 350.117188 C 259.765625 350.859375 259.835938 351.59375 259.980469 352.320312 C 260.125 353.046875 260.339844 353.753906 260.625 354.441406 C 260.910156 355.125 261.257812 355.777344 261.667969 356.390625 C 262.082031 357.007812 262.546875 357.578125 263.074219 358.105469 C 263.597656 358.628906 264.167969 359.097656 264.785156 359.507812 C 265.402344 359.921875 266.050781 360.269531 266.738281 360.550781 C 267.421875 360.835938 268.128906 361.050781 268.855469 361.195312 C 269.582031 361.339844 270.316406 361.410156 271.058594 361.410156 L 282.351562 361.410156 C 283.832031 361.410156 285.308594 361.339844 286.78125 361.195312 C 288.253906 361.050781 289.714844 360.832031 291.167969 360.542969 C 292.617188 360.253906 294.050781 359.894531 295.46875 359.464844 C 296.882812 359.035156 298.273438 358.539062 299.640625 357.972656 C 301.007812 357.40625 302.34375 356.773438 303.648438 356.078125 C 304.953125 355.378906 306.222656 354.621094 307.453125 353.796875 C 308.683594 352.976562 309.867188 352.097656 311.011719 351.15625 C 312.15625 350.21875 313.25 349.226562 314.296875 348.179688 C 315.34375 347.132812 316.335938 346.039062 317.273438 344.894531 C 318.214844 343.75 319.09375 342.5625 319.914062 341.332031 C 320.738281 340.105469 321.496094 338.835938 322.195312 337.53125 C 322.890625 336.226562 323.523438 334.890625 324.089844 333.523438 C 324.65625 332.15625 325.15625 330.765625 325.585938 329.347656 C 326.011719 327.933594 326.371094 326.5 326.660156 325.046875 C 326.949219 323.597656 327.167969 322.136719 327.3125 320.664062 C 327.457031 319.191406 327.53125 317.714844 327.53125 316.234375 L 327.53125 304.941406 C 327.53125 304.199219 327.457031 303.464844 327.3125 302.738281 C 327.167969 302.011719 326.953125 301.304688 326.667969 300.617188 C 326.386719 299.933594 326.039062 299.28125 325.625 298.667969 C 325.214844 298.050781 324.746094 297.480469 324.222656 296.953125 C 323.695312 296.429688 323.125 295.960938 322.511719 295.550781 C 321.894531 295.136719 321.242188 294.789062 320.558594 294.507812 C 319.871094 294.222656 319.164062 294.007812 318.4375 293.863281 C 317.710938 293.71875 316.976562 293.648438 316.234375 293.648438 C 315.492188 293.648438 314.757812 293.71875 314.03125 293.863281 C 313.304688 294.007812 312.597656 294.222656 311.914062 294.507812 C 311.226562 294.789062 310.578125 295.136719 309.960938 295.550781 C 309.34375 295.960938 308.773438 296.429688 308.25 296.953125 C 307.726562 297.480469 307.257812 298.050781 306.84375 298.667969 C 306.433594 299.28125 306.085938 299.933594 305.800781 300.617188 C 305.515625 301.304688 305.304688 302.011719 305.15625 302.738281 C 305.011719 303.464844 304.941406 304.199219 304.941406 304.941406 Z M 79.058594 316.234375 C 79.058594 316.976562 79.09375 317.714844 79.167969 318.449219 C 79.238281 319.183594 79.347656 319.917969 79.492188 320.640625 C 79.636719 321.367188 79.816406 322.085938 80.03125 322.792969 C 80.246094 323.5 80.496094 324.195312 80.777344 324.878906 C 81.0625 325.5625 81.378906 326.230469 81.726562 326.882812 C 82.074219 327.535156 82.453125 328.167969 82.867188 328.785156 C 83.277344 329.398438 83.71875 329.992188 84.1875 330.566406 C 84.65625 331.136719 85.152344 331.683594 85.675781 332.207031 C 86.199219 332.730469 86.746094 333.226562 87.316406 333.695312 C 87.890625 334.164062 88.484375 334.605469 89.097656 335.015625 C 89.710938 335.425781 90.347656 335.808594 91 336.15625 C 91.652344 336.503906 92.320312 336.820312 93.003906 337.105469 C 93.6875 337.386719 94.382812 337.636719 95.089844 337.851562 C 95.796875 338.066406 96.515625 338.246094 97.242188 338.390625 C 97.964844 338.535156 98.695312 338.640625 99.433594 338.714844 C 100.167969 338.789062 100.90625 338.824219 101.648438 338.824219 L 112.941406 338.824219 C 113.683594 338.824219 114.417969 338.894531 115.144531 339.039062 C 115.871094 339.183594 116.578125 339.398438 117.261719 339.683594 C 117.949219 339.96875 118.597656 340.316406 119.214844 340.726562 C 119.832031 341.140625 120.402344 341.605469 120.925781 342.132812 C 121.453125 342.65625 121.921875 343.226562 122.332031 343.84375 C 122.742188 344.460938 123.09375 345.109375 123.375 345.796875 C 123.660156 346.480469 123.875 347.1875 124.019531 347.914062 C 124.164062 348.640625 124.234375 349.375 124.234375 350.117188 C 124.234375 350.859375 124.164062 351.59375 124.019531 352.320312 C 123.875 353.046875 123.660156 353.753906 123.375 354.441406 C 123.09375 355.125 122.742188 355.777344 122.332031 356.390625 C 121.921875 357.007812 121.453125 357.578125 120.925781 358.105469 C 120.402344 358.628906 119.832031 359.097656 119.214844 359.507812 C 118.597656 359.921875 117.949219 360.269531 117.261719 360.550781 C 116.578125 360.835938 115.871094 361.050781 115.144531 361.195312 C 114.417969 361.339844 113.683594 361.410156 112.941406 361.410156 L 101.648438 361.410156 C 100.167969 361.410156 98.691406 361.339844 97.21875 361.195312 C 95.746094 361.050781 94.285156 360.832031 92.832031 360.542969 C 91.382812 360.253906 89.949219 359.894531 88.53125 359.464844 C 87.117188 359.035156 85.726562 358.539062 84.359375 357.972656 C 82.992188 357.40625 81.65625 356.773438 80.351562 356.078125 C 79.046875 355.378906 77.777344 354.621094 76.546875 353.796875 C 75.316406 352.976562 74.132812 352.097656 72.988281 351.15625 C 71.84375 350.21875 70.75 349.226562 69.703125 348.179688 C 68.65625 347.132812 67.664062 346.039062 66.726562 344.894531 C 65.785156 343.75 64.90625 342.5625 64.085938 341.332031 C 63.261719 340.105469 62.503906 338.835938 61.804688 337.53125 C 61.109375 336.226562 60.476562 334.890625 59.910156 333.523438 C 59.34375 332.15625 58.84375 330.765625 58.414062 329.347656 C 57.988281 327.933594 57.628906 326.5 57.339844 325.046875 C 57.050781 323.597656 56.832031 322.136719 56.6875 320.664062 C 56.542969 319.191406 56.46875 317.714844 56.46875 316.234375 L 56.46875 304.941406 C 56.46875 304.199219 56.542969 303.464844 56.6875 302.738281 C 56.832031 302.011719 57.046875 301.304688 57.332031 300.617188 C 57.613281 299.933594 57.960938 299.28125 58.375 298.667969 C 58.785156 298.050781 59.253906 297.480469 59.777344 296.953125 C 60.304688 296.429688 60.875 295.960938 61.488281 295.550781 C 62.105469 295.136719 62.757812 294.789062 63.441406 294.507812 C 64.128906 294.222656 64.835938 294.007812 65.5625 293.863281 C 66.289062 293.71875 67.023438 293.648438 67.765625 293.648438 C 68.507812 293.648438 69.242188 293.71875 69.96875 293.863281 C 70.695312 294.007812 71.402344 294.222656 72.085938 294.507812 C 72.773438 294.789062 73.421875 295.136719 74.039062 295.550781 C 74.65625 295.960938 75.226562 296.429688 75.75 296.953125 C 76.273438 297.480469 76.742188 298.050781 77.15625 298.667969 C 77.566406 299.28125 77.914062 299.933594 78.199219 300.617188 C 78.484375 301.304688 78.695312 302.011719 78.84375 302.738281 C 78.988281 303.464844 79.058594 304.199219 79.058594 304.941406 Z M 237.175781 350.117188 C 237.175781 349.375 237.105469 348.640625 236.960938 347.914062 C 236.816406 347.1875 236.601562 346.480469 236.316406 345.796875 C 236.03125 345.109375 235.683594 344.460938 235.273438 343.84375 C 234.859375 343.226562 234.394531 342.65625 233.867188 342.132812 C 233.34375 341.605469 232.773438 341.140625 232.15625 340.726562 C 231.539062 340.316406 230.890625 339.96875 230.203125 339.683594 C 229.519531 339.398438 228.8125 339.183594 228.085938 339.039062 C 227.359375 338.894531 226.625 338.824219 225.882812 338.824219 L 158.117188 338.824219 C 157.375 338.824219 156.640625 338.894531 155.914062 339.039062 C 155.1875 339.183594 154.480469 339.398438 153.796875 339.683594 C 153.109375 339.96875 152.460938 340.316406 151.84375 340.726562 C 151.226562 341.140625 150.65625 341.605469 150.132812 342.132812 C 149.605469 342.65625 149.140625 343.226562 148.726562 343.84375 C 148.316406 344.460938 147.96875 345.109375 147.683594 345.796875 C 147.398438 346.480469 147.183594 347.1875 147.039062 347.914062 C 146.894531 348.640625 146.824219 349.375 146.824219 350.117188 C 146.824219 350.859375 146.894531 351.59375 147.039062 352.320312 C 147.183594 353.046875 147.398438 353.753906 147.683594 354.441406 C 147.96875 355.125 148.316406 355.777344 148.726562 356.390625 C 149.140625 357.007812 149.605469 357.578125 150.132812 358.105469 C 150.65625 358.628906 151.226562 359.097656 151.84375 359.507812 C 152.460938 359.921875 153.109375 360.269531 153.796875 360.550781 C 154.480469 360.835938 155.1875 361.050781 155.914062 361.195312 C 156.640625 361.339844 157.375 361.410156 158.117188 361.410156 L 225.882812 361.410156 C 226.625 361.410156 227.359375 361.339844 228.085938 361.195312 C 228.8125 361.050781 229.519531 360.835938 230.203125 360.550781 C 230.890625 360.269531 231.539062 359.921875 232.15625 359.507812 C 232.773438 359.097656 233.34375 358.628906 233.867188 358.105469 C 234.394531 357.578125 234.859375 357.007812 235.273438 356.390625 C 235.683594 355.777344 236.03125 355.125 236.316406 354.441406 C 236.601562 353.753906 236.816406 353.046875 236.960938 352.320312 C 237.105469 351.59375 237.175781 350.859375 237.175781 350.117188 Z M 327.53125 259.765625 C 327.53125 260.507812 327.457031 261.242188 327.3125 261.96875 C 327.167969 262.695312 326.953125 263.402344 326.667969 264.085938 C 326.386719 264.773438 326.039062 265.421875 325.625 266.039062 C 325.214844 266.65625 324.746094 267.226562 324.222656 267.75 C 323.695312 268.273438 323.125 268.742188 322.511719 269.15625 C 321.894531 269.566406 321.242188 269.914062 320.558594 270.199219 C 319.871094 270.484375 319.164062 270.695312 318.4375 270.839844 C 317.710938 270.988281 316.976562 271.058594 316.234375 271.058594 C 315.492188 271.058594 314.757812 270.988281 314.03125 270.839844 C 313.304688 270.695312 312.597656 270.484375 311.914062 270.199219 C 311.226562 269.914062 310.578125 269.566406 309.960938 269.15625 C 309.34375 268.742188 308.773438 268.273438 308.25 267.75 C 307.726562 267.226562 307.257812 266.65625 306.84375 266.039062 C 306.433594 265.421875 306.085938 264.773438 305.800781 264.085938 C 305.515625 263.402344 305.304688 262.695312 305.15625 261.96875 C 305.011719 261.242188 304.941406 260.507812 304.941406 259.765625 L 304.941406 237.175781 C 304.941406 236.433594 305.011719 235.699219 305.15625 234.972656 C 305.304688 234.246094 305.515625 233.539062 305.800781 232.855469 C 306.085938 232.167969 306.433594 231.519531 306.84375 230.902344 C 307.257812 230.285156 307.726562 229.714844 308.25 229.191406 C 308.773438 228.664062 309.34375 228.199219 309.960938 227.785156 C 310.578125 227.375 311.226562 227.027344 311.914062 226.742188 C 312.597656 226.457031 313.304688 226.242188 314.03125 226.097656 C 314.757812 225.953125 315.492188 225.882812 316.234375 225.882812 C 316.976562 225.882812 317.710938 225.953125 318.4375 226.097656 C 319.164062 226.242188 319.871094 226.457031 320.558594 226.742188 C 321.242188 227.027344 321.894531 227.375 322.511719 227.785156 C 323.125 228.199219 323.695312 228.664062 324.222656 229.191406 C 324.746094 229.714844 325.214844 230.285156 325.625 230.902344 C 326.039062 231.519531 326.386719 232.167969 326.667969 232.855469 C 326.953125 233.539062 327.167969 234.246094 327.3125 234.972656 C 327.457031 235.699219 327.53125 236.433594 327.53125 237.175781 Z M 67.765625 271.058594 C 68.507812 271.058594 69.242188 270.988281 69.96875 270.839844 C 70.695312 270.695312 71.402344 270.484375 72.085938 270.199219 C 72.773438 269.914062 73.421875 269.566406 74.039062 269.15625 C 74.65625 268.742188 75.226562 268.273438 75.75 267.75 C 76.273438 267.226562 76.742188 266.65625 77.15625 266.039062 C 77.566406 265.421875 77.914062 264.773438 78.199219 264.085938 C 78.484375 263.402344 78.695312 262.695312 78.84375 261.96875 C 78.988281 261.242188 79.058594 260.507812 79.058594 259.765625 L 79.058594 237.175781 C 79.058594 236.433594 78.988281 235.699219 78.84375 234.972656 C 78.695312 234.246094 78.484375 233.539062 78.199219 232.855469 C 77.914062 232.167969 77.566406 231.519531 77.15625 230.902344 C 76.742188 230.285156 76.273438 229.714844 75.75 229.191406 C 75.226562 228.664062 74.65625 228.199219 74.039062 227.785156 C 73.421875 227.375 72.773438 227.027344 72.085938 226.742188 C 71.402344 226.457031 70.695312 226.242188 69.96875 226.097656 C 69.242188 225.953125 68.507812 225.882812 67.765625 225.882812 C 67.023438 225.882812 66.289062 225.953125 65.5625 226.097656 C 64.835938 226.242188 64.128906 226.457031 63.441406 226.742188 C 62.757812 227.027344 62.105469 227.375 61.488281 227.785156 C 60.875 228.199219 60.304688 228.664062 59.777344 229.191406 C 59.253906 229.714844 58.785156 230.285156 58.375 230.902344 C 57.960938 231.519531 57.613281 232.167969 57.332031 232.855469 C 57.046875 233.539062 56.832031 234.246094 56.6875 234.972656 C 56.542969 235.699219 56.46875 236.433594 56.46875 237.175781 L 56.46875 259.765625 C 56.46875 260.507812 56.542969 261.242188 56.6875 261.96875 C 56.832031 262.695312 57.046875 263.402344 57.332031 264.085938 C 57.613281 264.773438 57.960938 265.421875 58.375 266.039062 C 58.785156 266.65625 59.253906 267.226562 59.777344 267.75 C 60.304688 268.273438 60.875 268.742188 61.488281 269.15625 C 62.105469 269.566406 62.757812 269.914062 63.441406 270.199219 C 64.128906 270.484375 64.835938 270.695312 65.5625 270.839844 C 66.289062 270.988281 67.023438 271.058594 67.765625 271.058594 Z M 67.765625 271.058594 " fill-opacity="1" fill-rule="nonzero"/></svg>